<svg width="64" height="64" viewBox="0 0 64 64" fill="none" xmlns="http://www.w3.org/2000/svg">
  <rect width="64" height="64" rx="14" fill="#111111"/>
  <path d="M35.5 14V34.5C35.5 41.4 29.9 47 23 47C16.1 47 10.5 41.4 10.5 34.5C10.5 27.6 16.1 22 23 22C24.4 22 25.7 22.2 27 22.7V30.2C25.8 29.4 24.4 29 23 29C20 29 17.5 31.5 17.5 34.5C17.5 37.5 20 40 23 40C26 40 28.5 37.5 28.5 34.5V14H35.5Z" fill="#25F4EE"/>
  <path d="M42.5 14C42.9 18 45.8 21.1 49.8 21.8V28.7C47.1 28.2 44.6 27 42.5 25.4V14Z" fill="#FE2C55"/>
</svg>
